# xmcd
#
# Track frame offsets: 
#        150
#        13839
#        23656
#        36130
#        51003
#        61476
#        75558
#        93769
#        105060
#        116762
#        130464
#        141125
#        157043
#        171845
#
# Disc length: 2466 seconds
#
# Revision: 0
# Processed by: cddbd v1.5.1PL0 Copyright (c) Steve Scherf et al.
# Submitted via: ExactAudioCopy v0.95a5
#
DISCID=ad09a00e
DTITLE=Lonesome Whistle Band - God's Not Dead
DYEAR=2000
DGENRE=Bluegrass
TTITLE0=Will He Wait
TTITLE1=Travelin' His Highway Home
TTITLE2=What Would You Do
TTITLE3=Brighter Mansion
TTITLE4=Cry From The Cross
TTITLE5=I'll Fly Away
TTITLE6=Keeper Of The Door
TTITLE7=Pickin' For Jesus
TTITLE8=Crying Holy
TTITLE9=Shouting On The Hills Of Glory
TTITLE10=My Lord's Gonna Set Me Free
TTITLE11=Amazin' Grace
TTITLE12=God's Not Dead
TTITLE13=Hallelujah I'm Ready
EXTD=
EXTT0=
EXTT1=
EXTT2=
EXTT3=
EXTT4=
EXTT5=
EXTT6=
EXTT7=
EXTT8=
EXTT9=
EXTT10=
EXTT11=
EXTT12=
EXTT13=
PLAYORDER=
